# Blender v2.76 (sub 0) OBJ File: ''
# www.blender.org
mtllib openPillars.mtl
o Cube
v 67.999969 -68.000000 -67.999962
v 67.999969 -68.000000 67.999969
v -67.999977 -68.000000 67.999954
v -67.999947 -68.000000 -67.999992
v -63.999950 -64.000000 -67.999992
v 63.999966 -64.000000 -67.999962
v 63.999992 64.000000 -67.999931
v 68.000000 68.000000 -67.999931
v 67.999954 -64.000000 64.000000
v 67.999977 64.000000 -64.000000
v 67.999985 -64.000000 -64.000000
v 67.999947 64.000000 64.000000
v 67.999924 68.000000 68.000008
v 63.999939 64.000000 67.999992
v 63.999966 -64.000000 67.999977
v -63.999973 -64.000000 67.999947
v -67.999992 64.000000 64.000000
v -67.999977 -64.000000 64.000000
v -67.999992 68.000000 67.999947
v -67.999962 68.000000 -67.999969
v -67.999962 64.000000 -64.000000
v -67.999947 -64.000000 -64.000000
v -63.999966 64.000000 -67.999969
v -63.999950 -64.000000 -64.000000
v 63.999966 -64.000000 -64.000000
v 63.999992 64.000000 -64.000000
v -63.999989 64.000000 67.999962
v 63.999966 -64.000000 64.000000
v 63.999939 64.000000 64.000000
v -63.999973 -64.000000 64.000000
v -63.999966 64.000000 -64.000000
v -63.999989 64.000000 64.000000
vn 0.000000 -1.000000 0.000000
vn 0.000000 0.000000 -1.000000
vn 1.000000 0.000000 -0.000000
vn -0.000000 -0.000000 1.000000
vn -1.000000 0.000000 -0.000000
vn 0.000000 1.000000 0.000000
usemtl Material
s off
f 2//1 3//1 4//1
f 1//2 6//2 7//2
f 1//3 10//3 11//3
f 12//3 13//3 9//3
f 2//4 15//4 16//4
f 17//5 19//5 21//5
f 21//5 20//5 4//5
f 20//2 7//2 23//2
f 5//6 24//6 25//6
f 6//5 25//5 26//5
f 8//6 20//6 19//6
f 27//4 13//4 19//4
f 15//5 14//5 29//5
f 16//6 15//6 28//6
f 7//1 26//1 31//1
f 5//3 23//3 31//3
f 16//3 30//3 32//3
f 14//1 27//1 32//1
f 24//6 30//6 28//6
f 29//1 32//1 31//1
f 22//4 24//4 31//4
f 32//1 17//1 21//1
f 18//6 30//6 24//6
f 30//2 18//2 17//2
f 25//4 11//4 10//4
f 12//1 29//1 26//1
f 28//6 9//6 11//6
f 9//2 28//2 29//2
f 1//1 2//1 4//1
f 1//2 4//2 5//2
f 7//2 8//2 1//2
f 1//2 5//2 6//2
f 11//3 9//3 2//3
f 1//3 8//3 10//3
f 11//3 2//3 1//3
f 12//3 10//3 8//3
f 2//3 9//3 13//3
f 12//3 8//3 13//3
f 2//4 13//4 14//4
f 16//4 3//4 2//4
f 2//4 14//4 15//4
f 17//5 18//5 3//5
f 20//5 21//5 19//5
f 17//5 3//5 19//5
f 3//5 18//5 22//5
f 22//5 21//5 4//5
f 4//5 3//5 22//5
f 5//2 4//2 20//2
f 20//2 8//2 7//2
f 23//2 5//2 20//2
f 6//6 5//6 25//6
f 7//5 6//5 26//5
f 13//6 8//6 19//6
f 19//4 3//4 27//4
f 27//4 14//4 13//4
f 3//4 16//4 27//4
f 28//5 15//5 29//5
f 30//6 16//6 28//6
f 23//1 7//1 31//1
f 24//3 5//3 31//3
f 27//3 16//3 32//3
f 29//1 14//1 32//1
f 25//6 24//6 28//6
f 26//1 29//1 31//1
f 21//4 22//4 31//4
f 31//1 32//1 21//1
f 22//6 18//6 24//6
f 32//2 30//2 17//2
f 26//4 25//4 10//4
f 10//1 12//1 26//1
f 25//6 28//6 11//6
f 12//2 9//2 29//2
