# Blender v2.76 (sub 0) OBJ File: 'currentportals.blend'
# www.blender.org
mtllib room2a.mtl
o Cube.002_Cube.009
v -15.000000 6.000000 3.000001
v -15.000000 7.000000 3.000001
v -16.000000 6.000000 3.000001
v -16.000000 7.000000 3.000001
v -15.000000 6.000000 -2.999999
v -15.000000 7.000000 -2.999999
v -16.000000 6.000000 -2.999999
v -16.000000 7.000000 -2.999999
v -15.000000 0.000000 3.000001
v -15.000000 6.000000 3.000001
v -16.000000 0.000000 3.000001
v -16.000000 6.000000 3.000001
v -15.000000 0.000000 2.000001
v -15.000000 6.000000 2.000001
v -16.000000 0.000000 2.000001
v -16.000000 6.000000 2.000001
v -15.000000 0.000000 -1.999999
v -15.000000 6.000000 -1.999999
v -16.000000 0.000000 -1.999999
v -16.000000 6.000000 -1.999999
v -15.000000 0.000000 -2.999999
v -15.000000 6.000000 -2.999999
v -16.000000 0.000000 -2.999999
v -16.000000 6.000000 -2.999999
v 16.000000 0.000000 15.999999
v 16.000000 32.000000 15.999999
v -15.999999 0.000000 16.000000
v -15.999999 32.000000 16.000000
v 15.999999 0.000000 -16.000000
v 15.999999 32.000000 -16.000000
v -16.000000 0.000000 -15.999999
v -16.000000 32.000000 -15.999999
vn 0.000000 0.000000 1.000000
vn -1.000000 0.000000 0.000000
vn 0.000000 0.000000 -1.000000
vn 1.000000 0.000000 0.000000
vn 0.000000 -1.000000 0.000000
vn 0.000000 1.000000 0.000000
usemtl None
s off
f 4//1 3//1 1//1
f 8//2 7//2 3//2
f 6//3 5//3 7//3
f 2//4 1//4 5//4
f 3//5 7//5 5//5
f 8//6 4//6 2//6
f 12//1 11//1 9//1
f 14//3 13//3 15//3
f 10//4 9//4 13//4
f 11//5 15//5 13//5
f 20//1 19//1 17//1
f 22//3 21//3 23//3
f 18//4 17//4 21//4
f 19//5 23//5 21//5
f 25//3 27//3 28//3
f 27//4 31//4 32//4
f 31//1 29//1 30//1
f 29//2 25//2 26//2
f 29//6 31//6 27//6
f 26//5 28//5 32//5
f 2//1 4//1 1//1
f 4//2 8//2 3//2
f 8//3 6//3 7//3
f 6//4 2//4 5//4
f 1//5 3//5 5//5
f 6//6 8//6 2//6
f 10//1 12//1 9//1
f 16//3 14//3 15//3
f 14//4 10//4 13//4
f 9//5 11//5 13//5
f 18//1 20//1 17//1
f 24//3 22//3 23//3
f 22//4 18//4 21//4
f 17//5 19//5 21//5
f 26//3 25//3 28//3
f 28//4 27//4 32//4
f 32//1 31//1 30//1
f 30//2 29//2 26//2
f 25//6 29//6 27//6
f 30//5 26//5 32//5
l 12 16
l 20 24
